<mxfile host="app.diagrams.net" agent="Mozilla/5.0 (X11; Linux x86_64) AppleWebKit/537.36 (KHTML, like Gecko) Chrome/130.0.0.0 Safari/537.36" version="24.8.3">
  <diagram name="Page-1" id="gAvligO_c9pF_bg5XD_2">
    <mxGraphModel dx="1018" dy="523" grid="1" gridSize="10" guides="1" tooltips="1" connect="1" arrows="1" fold="1" page="1" pageScale="1" pageWidth="827" pageHeight="1169" math="0" shadow="0">
      <root>
        <mxCell id="0" />
        <mxCell id="1" parent="0" />
        <mxCell id="Hfv5ktiSSDUrCXjG687T-2" value="" style="rounded=0;whiteSpace=wrap;html=1;" parent="1" vertex="1">
          <mxGeometry x="110" y="560" width="630" height="420" as="geometry" />
        </mxCell>
        <mxCell id="Hfv5ktiSSDUrCXjG687T-10" value="&lt;font style=&quot;font-size: 10px;&quot;&gt;Payment&lt;/font&gt;" style="rounded=0;whiteSpace=wrap;html=1;strokeWidth=1;" parent="1" vertex="1">
          <mxGeometry x="600" y="260" width="80" height="40" as="geometry" />
        </mxCell>
        <mxCell id="Hfv5ktiSSDUrCXjG687T-12" value="&lt;font style=&quot;font-size: 10px;&quot;&gt;Currency&lt;/font&gt;" style="rounded=0;whiteSpace=wrap;html=1;strokeWidth=1;" parent="1" vertex="1">
          <mxGeometry x="480" y="380" width="80" height="40" as="geometry" />
        </mxCell>
        <mxCell id="Hfv5ktiSSDUrCXjG687T-13" value="&lt;font style=&quot;font-size: 10px;&quot;&gt;Market&lt;/font&gt;" style="rounded=0;whiteSpace=wrap;html=1;strokeWidth=1;" parent="1" vertex="1">
          <mxGeometry x="440" y="110" width="80" height="40" as="geometry" />
        </mxCell>
        <mxCell id="Hfv5ktiSSDUrCXjG687T-14" value="&lt;font style=&quot;font-size: 10px;&quot;&gt;Transaction&lt;/font&gt;" style="rounded=0;whiteSpace=wrap;html=1;strokeWidth=1;" parent="1" vertex="1">
          <mxGeometry x="450" y="270" width="80" height="40" as="geometry" />
        </mxCell>
        <mxCell id="Hfv5ktiSSDUrCXjG687T-15" value="&lt;font style=&quot;font-size: 10px;&quot;&gt;Authentication&lt;/font&gt;" style="rounded=0;whiteSpace=wrap;html=1;strokeWidth=1;" parent="1" vertex="1">
          <mxGeometry x="120" y="380" width="80" height="40" as="geometry" />
        </mxCell>
        <mxCell id="Hfv5ktiSSDUrCXjG687T-16" value="&lt;font style=&quot;font-size: 10px;&quot;&gt;Account&lt;/font&gt;" style="rounded=0;whiteSpace=wrap;html=1;strokeWidth=1;" parent="1" vertex="1">
          <mxGeometry x="184" y="240" width="80" height="40" as="geometry" />
        </mxCell>
        <mxCell id="Hfv5ktiSSDUrCXjG687T-17" value="&lt;font style=&quot;font-size: 10px;&quot;&gt;Collection&lt;/font&gt;" style="rounded=0;whiteSpace=wrap;html=1;strokeWidth=1;" parent="1" vertex="1">
          <mxGeometry x="310" y="110" width="80" height="40" as="geometry" />
        </mxCell>
        <mxCell id="Hfv5ktiSSDUrCXjG687T-18" value="&lt;font style=&quot;font-size: 10px;&quot;&gt;Player&lt;/font&gt;" style="rounded=0;whiteSpace=wrap;html=1;strokeWidth=1;" parent="1" vertex="1">
          <mxGeometry x="280" y="290" width="80" height="40" as="geometry" />
        </mxCell>
        <mxCell id="Hfv5ktiSSDUrCXjG687T-19" value="&lt;font style=&quot;font-size: 10px;&quot;&gt;&lt;br&gt;Gacha&lt;br&gt;Rarity&lt;/font&gt;" style="strokeWidth=1;html=1;shape=mxgraph.flowchart.database;whiteSpace=wrap;" parent="1" vertex="1">
          <mxGeometry x="184" y="120" width="60" height="60" as="geometry" />
        </mxCell>
        <mxCell id="Hfv5ktiSSDUrCXjG687T-23" value="&lt;font style=&quot;font-size: 10px;&quot;&gt;&lt;br&gt;Player gacha&lt;/font&gt;" style="strokeWidth=1;html=1;shape=mxgraph.flowchart.database;whiteSpace=wrap;" parent="1" vertex="1">
          <mxGeometry x="354" y="180" width="60" height="60" as="geometry" />
        </mxCell>
        <mxCell id="Hfv5ktiSSDUrCXjG687T-24" value="&lt;font style=&quot;font-size: 10px;&quot;&gt;Admin&lt;/font&gt;" style="strokeWidth=1;html=1;shape=mxgraph.flowchart.database;whiteSpace=wrap;" parent="1" vertex="1">
          <mxGeometry x="260" y="370" width="60" height="60" as="geometry" />
        </mxCell>
        <mxCell id="Hfv5ktiSSDUrCXjG687T-25" value="&lt;font style=&quot;font-size: 10px;&quot;&gt;Auction&lt;/font&gt;" style="strokeWidth=1;html=1;shape=mxgraph.flowchart.database;whiteSpace=wrap;" parent="1" vertex="1">
          <mxGeometry x="600" y="100" width="60" height="60" as="geometry" />
        </mxCell>
        <mxCell id="Hfv5ktiSSDUrCXjG687T-26" value="&lt;font style=&quot;font-size: 10px;&quot;&gt;Transaction&lt;/font&gt;" style="strokeWidth=1;html=1;shape=mxgraph.flowchart.database;whiteSpace=wrap;" parent="1" vertex="1">
          <mxGeometry x="460" y="180" width="60" height="60" as="geometry" />
        </mxCell>
        <mxCell id="Hfv5ktiSSDUrCXjG687T-27" value="" style="endArrow=classic;startArrow=classic;html=1;rounded=0;entryX=0;entryY=0.5;entryDx=0;entryDy=0;exitX=1;exitY=0.5;exitDx=0;exitDy=0;exitPerimeter=0;strokeWidth=0.5;edgeStyle=orthogonalEdgeStyle;" parent="1" source="Hfv5ktiSSDUrCXjG687T-19" target="Hfv5ktiSSDUrCXjG687T-17" edge="1">
          <mxGeometry width="50" height="50" relative="1" as="geometry">
            <mxPoint x="360" y="290" as="sourcePoint" />
            <mxPoint x="410" y="240" as="targetPoint" />
          </mxGeometry>
        </mxCell>
        <mxCell id="Hfv5ktiSSDUrCXjG687T-30" value="" style="endArrow=classic;startArrow=classic;html=1;rounded=0;entryX=0;entryY=0.5;entryDx=0;entryDy=0;strokeWidth=0.5;edgeStyle=orthogonalEdgeStyle;" parent="1" edge="1">
          <mxGeometry width="50" height="50" relative="1" as="geometry">
            <mxPoint x="240" y="240" as="sourcePoint" />
            <mxPoint x="354" y="209.66" as="targetPoint" />
            <Array as="points">
              <mxPoint x="240" y="240" />
              <mxPoint x="240" y="210" />
            </Array>
          </mxGeometry>
        </mxCell>
        <mxCell id="Hfv5ktiSSDUrCXjG687T-35" value="" style="endArrow=classic;startArrow=classic;html=1;rounded=0;entryX=0.5;entryY=1;entryDx=0;entryDy=0;exitX=0.5;exitY=0;exitDx=0;exitDy=0;strokeWidth=0.5;entryPerimeter=0;" parent="1" source="Hfv5ktiSSDUrCXjG687T-14" target="Hfv5ktiSSDUrCXjG687T-26" edge="1">
          <mxGeometry width="50" height="50" relative="1" as="geometry">
            <mxPoint x="260" y="220" as="sourcePoint" />
            <mxPoint x="350" y="220" as="targetPoint" />
          </mxGeometry>
        </mxCell>
        <mxCell id="Hfv5ktiSSDUrCXjG687T-41" value="" style="endArrow=classic;startArrow=classic;html=1;rounded=0;entryX=1;entryY=0.5;entryDx=0;entryDy=0;exitX=0;exitY=0.5;exitDx=0;exitDy=0;exitPerimeter=0;strokeWidth=0.5;edgeStyle=orthogonalEdgeStyle;" parent="1" source="Hfv5ktiSSDUrCXjG687T-24" target="Hfv5ktiSSDUrCXjG687T-15" edge="1">
          <mxGeometry width="50" height="50" relative="1" as="geometry">
            <mxPoint x="210" y="150" as="sourcePoint" />
            <mxPoint x="300" y="150" as="targetPoint" />
          </mxGeometry>
        </mxCell>
        <mxCell id="Hfv5ktiSSDUrCXjG687T-42" value="&lt;font style=&quot;font-size: 10px;&quot;&gt;Player&lt;/font&gt;" style="strokeWidth=1;html=1;shape=mxgraph.flowchart.database;whiteSpace=wrap;" parent="1" vertex="1">
          <mxGeometry x="380" y="370" width="60" height="60" as="geometry" />
        </mxCell>
        <mxCell id="Hfv5ktiSSDUrCXjG687T-45" value="" style="endArrow=classic;startArrow=classic;html=1;rounded=0;strokeWidth=0.5;edgeStyle=orthogonalEdgeStyle;entryX=0.5;entryY=0;entryDx=0;entryDy=0;" parent="1" target="Hfv5ktiSSDUrCXjG687T-12" edge="1">
          <mxGeometry width="50" height="50" relative="1" as="geometry">
            <mxPoint x="360" y="320" as="sourcePoint" />
            <mxPoint x="620" y="330" as="targetPoint" />
            <Array as="points">
              <mxPoint x="360" y="320" />
              <mxPoint x="400" y="320" />
              <mxPoint x="400" y="340" />
              <mxPoint x="520" y="340" />
            </Array>
          </mxGeometry>
        </mxCell>
        <mxCell id="Hfv5ktiSSDUrCXjG687T-46" value="" style="endArrow=classic;startArrow=classic;html=1;rounded=0;strokeWidth=0.5;edgeStyle=orthogonalEdgeStyle;exitX=0.5;exitY=1;exitDx=0;exitDy=0;" parent="1" source="Hfv5ktiSSDUrCXjG687T-18" target="Hfv5ktiSSDUrCXjG687T-42" edge="1">
          <mxGeometry width="50" height="50" relative="1" as="geometry">
            <mxPoint x="370" y="320" as="sourcePoint" />
            <mxPoint x="530" y="390" as="targetPoint" />
            <Array as="points">
              <mxPoint x="320" y="350" />
              <mxPoint x="350" y="350" />
              <mxPoint x="350" y="400" />
            </Array>
          </mxGeometry>
        </mxCell>
        <mxCell id="c8YCA9QRvNdci1v1StS8-2" value="" style="endArrow=classic;startArrow=classic;html=1;rounded=0;entryX=0;entryY=0.5;entryDx=0;entryDy=0;exitX=1;exitY=0.5;exitDx=0;exitDy=0;strokeWidth=0.5;edgeStyle=orthogonalEdgeStyle;" parent="1" source="Hfv5ktiSSDUrCXjG687T-17" target="Hfv5ktiSSDUrCXjG687T-13" edge="1">
          <mxGeometry width="50" height="50" relative="1" as="geometry">
            <mxPoint x="170" y="250" as="sourcePoint" />
            <mxPoint x="300" y="219.66" as="targetPoint" />
            <Array as="points">
              <mxPoint x="410" y="130" />
              <mxPoint x="410" y="130" />
            </Array>
          </mxGeometry>
        </mxCell>
        <mxCell id="c8YCA9QRvNdci1v1StS8-3" value="" style="endArrow=classic;startArrow=classic;html=1;rounded=0;exitX=1;exitY=0.75;exitDx=0;exitDy=0;strokeWidth=0.5;edgeStyle=orthogonalEdgeStyle;" parent="1" source="Hfv5ktiSSDUrCXjG687T-13" edge="1">
          <mxGeometry width="50" height="50" relative="1" as="geometry">
            <mxPoint x="180" y="260" as="sourcePoint" />
            <mxPoint x="600" y="270" as="targetPoint" />
            <Array as="points">
              <mxPoint x="560" y="140" />
              <mxPoint x="560" y="270" />
            </Array>
          </mxGeometry>
        </mxCell>
        <mxCell id="h_TPtG5sdtzdA33OqhRF-1" value="" style="endArrow=classic;startArrow=classic;html=1;rounded=0;exitX=1;exitY=0.25;exitDx=0;exitDy=0;strokeWidth=0.5;edgeStyle=orthogonalEdgeStyle;entryX=0;entryY=0.5;entryDx=0;entryDy=0;entryPerimeter=0;" parent="1" source="Hfv5ktiSSDUrCXjG687T-13" target="Hfv5ktiSSDUrCXjG687T-25" edge="1">
          <mxGeometry width="50" height="50" relative="1" as="geometry">
            <mxPoint x="530" y="150" as="sourcePoint" />
            <mxPoint x="590" y="130" as="targetPoint" />
            <Array as="points">
              <mxPoint x="570" y="120" />
              <mxPoint x="570" y="130" />
            </Array>
          </mxGeometry>
        </mxCell>
        <mxCell id="h_TPtG5sdtzdA33OqhRF-2" value="" style="endArrow=classic;startArrow=classic;html=1;rounded=0;entryX=1;entryY=0.5;entryDx=0;entryDy=0;exitX=0;exitY=0.75;exitDx=0;exitDy=0;strokeWidth=0.5;edgeStyle=orthogonalEdgeStyle;" parent="1" source="Hfv5ktiSSDUrCXjG687T-10" edge="1">
          <mxGeometry width="50" height="50" relative="1" as="geometry">
            <mxPoint x="590" y="289.76" as="sourcePoint" />
            <mxPoint x="530" y="289.76" as="targetPoint" />
          </mxGeometry>
        </mxCell>
        <mxCell id="h_TPtG5sdtzdA33OqhRF-3" value="" style="endArrow=classic;startArrow=classic;html=1;rounded=0;strokeWidth=0.5;edgeStyle=orthogonalEdgeStyle;" parent="1" edge="1">
          <mxGeometry width="50" height="50" relative="1" as="geometry">
            <mxPoint x="480" y="110" as="sourcePoint" />
            <mxPoint x="280" y="300" as="targetPoint" />
            <Array as="points">
              <mxPoint x="480" y="90" />
              <mxPoint x="150" y="90" />
              <mxPoint x="150" y="300" />
            </Array>
          </mxGeometry>
        </mxCell>
        <mxCell id="h_TPtG5sdtzdA33OqhRF-4" value="" style="endArrow=classic;startArrow=classic;html=1;rounded=0;entryX=0;entryY=0.5;entryDx=0;entryDy=0;exitX=1;exitY=0.25;exitDx=0;exitDy=0;strokeWidth=0.5;edgeStyle=orthogonalEdgeStyle;" parent="1" source="Hfv5ktiSSDUrCXjG687T-16" target="Hfv5ktiSSDUrCXjG687T-14" edge="1">
          <mxGeometry width="50" height="50" relative="1" as="geometry">
            <mxPoint x="170" y="250" as="sourcePoint" />
            <mxPoint x="300" y="219.66" as="targetPoint" />
            <Array as="points">
              <mxPoint x="430" y="250" />
              <mxPoint x="430" y="290" />
            </Array>
          </mxGeometry>
        </mxCell>
        <mxCell id="h_TPtG5sdtzdA33OqhRF-5" value="" style="endArrow=classic;startArrow=classic;html=1;rounded=0;entryX=0.5;entryY=0;entryDx=0;entryDy=0;exitX=0;exitY=0.5;exitDx=0;exitDy=0;exitPerimeter=0;strokeWidth=0.5;edgeStyle=orthogonalEdgeStyle;" parent="1" target="Hfv5ktiSSDUrCXjG687T-15" edge="1">
          <mxGeometry width="50" height="50" relative="1" as="geometry">
            <mxPoint x="280" y="320" as="sourcePoint" />
            <mxPoint x="220" y="320" as="targetPoint" />
          </mxGeometry>
        </mxCell>
        <mxCell id="h_TPtG5sdtzdA33OqhRF-6" value="" style="endArrow=classic;startArrow=classic;html=1;rounded=0;entryX=1;entryY=0.5;entryDx=0;entryDy=0;strokeWidth=0.5;edgeStyle=orthogonalEdgeStyle;exitX=0.5;exitY=0;exitDx=0;exitDy=0;" parent="1" source="Hfv5ktiSSDUrCXjG687T-18" edge="1">
          <mxGeometry width="50" height="50" relative="1" as="geometry">
            <mxPoint x="320" y="280" as="sourcePoint" />
            <mxPoint x="264" y="270" as="targetPoint" />
            <Array as="points">
              <mxPoint x="320" y="270" />
            </Array>
          </mxGeometry>
        </mxCell>
        <mxCell id="h_TPtG5sdtzdA33OqhRF-7" value="" style="endArrow=classic;startArrow=classic;html=1;rounded=0;strokeWidth=0.5;edgeStyle=orthogonalEdgeStyle;entryX=0.43;entryY=1.004;entryDx=0;entryDy=0;entryPerimeter=0;" parent="1" target="Hfv5ktiSSDUrCXjG687T-17" edge="1">
          <mxGeometry width="50" height="50" relative="1" as="geometry">
            <mxPoint x="200" y="240" as="sourcePoint" />
            <mxPoint x="400" y="160" as="targetPoint" />
            <Array as="points">
              <mxPoint x="200" y="190" />
              <mxPoint x="300" y="190" />
              <mxPoint x="300" y="170" />
              <mxPoint x="344" y="170" />
              <mxPoint x="344" y="150" />
            </Array>
          </mxGeometry>
        </mxCell>
        <mxCell id="h_TPtG5sdtzdA33OqhRF-8" value="&lt;font style=&quot;font-size: 10px;&quot;&gt;Payment&lt;/font&gt;" style="rounded=0;whiteSpace=wrap;html=1;strokeWidth=1;" parent="1" vertex="1">
          <mxGeometry x="614" y="770" width="80" height="40" as="geometry" />
        </mxCell>
        <mxCell id="h_TPtG5sdtzdA33OqhRF-9" value="&lt;font style=&quot;font-size: 10px;&quot;&gt;Currency&lt;/font&gt;" style="rounded=0;whiteSpace=wrap;html=1;strokeWidth=1;" parent="1" vertex="1">
          <mxGeometry x="494" y="890" width="80" height="40" as="geometry" />
        </mxCell>
        <mxCell id="h_TPtG5sdtzdA33OqhRF-10" value="&lt;font style=&quot;font-size: 10px;&quot;&gt;Market&lt;/font&gt;" style="rounded=0;whiteSpace=wrap;html=1;strokeWidth=1;" parent="1" vertex="1">
          <mxGeometry x="454" y="620" width="80" height="40" as="geometry" />
        </mxCell>
        <mxCell id="h_TPtG5sdtzdA33OqhRF-11" value="&lt;font style=&quot;font-size: 10px;&quot;&gt;Transaction&lt;/font&gt;" style="rounded=0;whiteSpace=wrap;html=1;strokeWidth=1;" parent="1" vertex="1">
          <mxGeometry x="464" y="780" width="80" height="40" as="geometry" />
        </mxCell>
        <mxCell id="h_TPtG5sdtzdA33OqhRF-12" value="&lt;font style=&quot;font-size: 10px;&quot;&gt;Authentication&lt;/font&gt;" style="rounded=0;whiteSpace=wrap;html=1;strokeWidth=1;" parent="1" vertex="1">
          <mxGeometry x="134" y="890" width="80" height="40" as="geometry" />
        </mxCell>
        <mxCell id="h_TPtG5sdtzdA33OqhRF-13" value="&lt;font style=&quot;font-size: 10px;&quot;&gt;Account&lt;/font&gt;" style="rounded=0;whiteSpace=wrap;html=1;strokeWidth=1;" parent="1" vertex="1">
          <mxGeometry x="198" y="750" width="80" height="40" as="geometry" />
        </mxCell>
        <mxCell id="h_TPtG5sdtzdA33OqhRF-14" value="&lt;font style=&quot;font-size: 10px;&quot;&gt;Collection&lt;/font&gt;" style="rounded=0;whiteSpace=wrap;html=1;strokeWidth=1;" parent="1" vertex="1">
          <mxGeometry x="324" y="620" width="80" height="40" as="geometry" />
        </mxCell>
        <mxCell id="h_TPtG5sdtzdA33OqhRF-15" value="&lt;font style=&quot;font-size: 10px;&quot;&gt;Player&lt;/font&gt;" style="rounded=0;whiteSpace=wrap;html=1;strokeWidth=1;" parent="1" vertex="1">
          <mxGeometry x="294" y="800" width="80" height="40" as="geometry" />
        </mxCell>
        <mxCell id="h_TPtG5sdtzdA33OqhRF-16" value="&lt;font style=&quot;font-size: 10px;&quot;&gt;&lt;br&gt;Gacha&lt;br&gt;Rarity&lt;/font&gt;" style="strokeWidth=1;html=1;shape=mxgraph.flowchart.database;whiteSpace=wrap;" parent="1" vertex="1">
          <mxGeometry x="198" y="630" width="60" height="60" as="geometry" />
        </mxCell>
        <mxCell id="h_TPtG5sdtzdA33OqhRF-17" value="&lt;font style=&quot;font-size: 10px;&quot;&gt;&lt;br&gt;Player gacha&lt;/font&gt;" style="strokeWidth=1;html=1;shape=mxgraph.flowchart.database;whiteSpace=wrap;" parent="1" vertex="1">
          <mxGeometry x="368" y="690" width="60" height="60" as="geometry" />
        </mxCell>
        <mxCell id="h_TPtG5sdtzdA33OqhRF-18" value="&lt;font style=&quot;font-size: 10px;&quot;&gt;Admin&lt;/font&gt;" style="strokeWidth=1;html=1;shape=mxgraph.flowchart.database;whiteSpace=wrap;" parent="1" vertex="1">
          <mxGeometry x="274" y="880" width="60" height="60" as="geometry" />
        </mxCell>
        <mxCell id="h_TPtG5sdtzdA33OqhRF-19" value="&lt;font style=&quot;font-size: 10px;&quot;&gt;Auction&lt;/font&gt;" style="strokeWidth=1;html=1;shape=mxgraph.flowchart.database;whiteSpace=wrap;" parent="1" vertex="1">
          <mxGeometry x="614" y="610" width="60" height="60" as="geometry" />
        </mxCell>
        <mxCell id="h_TPtG5sdtzdA33OqhRF-20" value="&lt;font style=&quot;font-size: 10px;&quot;&gt;Transaction&lt;/font&gt;" style="strokeWidth=1;html=1;shape=mxgraph.flowchart.database;whiteSpace=wrap;" parent="1" vertex="1">
          <mxGeometry x="474" y="690" width="60" height="60" as="geometry" />
        </mxCell>
        <mxCell id="h_TPtG5sdtzdA33OqhRF-21" value="" style="endArrow=classic;startArrow=classic;html=1;rounded=0;entryX=0;entryY=0.5;entryDx=0;entryDy=0;exitX=1;exitY=0.5;exitDx=0;exitDy=0;exitPerimeter=0;strokeWidth=0.5;edgeStyle=orthogonalEdgeStyle;" parent="1" source="h_TPtG5sdtzdA33OqhRF-16" target="h_TPtG5sdtzdA33OqhRF-14" edge="1">
          <mxGeometry width="50" height="50" relative="1" as="geometry">
            <mxPoint x="374" y="800" as="sourcePoint" />
            <mxPoint x="424" y="750" as="targetPoint" />
          </mxGeometry>
        </mxCell>
        <mxCell id="h_TPtG5sdtzdA33OqhRF-22" value="" style="endArrow=classic;startArrow=classic;html=1;rounded=0;entryX=0;entryY=0.5;entryDx=0;entryDy=0;strokeWidth=0.5;edgeStyle=orthogonalEdgeStyle;" parent="1" edge="1">
          <mxGeometry width="50" height="50" relative="1" as="geometry">
            <mxPoint x="254" y="750" as="sourcePoint" />
            <mxPoint x="368" y="719.66" as="targetPoint" />
            <Array as="points">
              <mxPoint x="254" y="750" />
              <mxPoint x="254" y="720" />
            </Array>
          </mxGeometry>
        </mxCell>
        <mxCell id="h_TPtG5sdtzdA33OqhRF-23" value="" style="endArrow=classic;startArrow=classic;html=1;rounded=0;entryX=0.5;entryY=1;entryDx=0;entryDy=0;exitX=0.5;exitY=0;exitDx=0;exitDy=0;strokeWidth=0.5;entryPerimeter=0;" parent="1" source="h_TPtG5sdtzdA33OqhRF-11" target="h_TPtG5sdtzdA33OqhRF-20" edge="1">
          <mxGeometry width="50" height="50" relative="1" as="geometry">
            <mxPoint x="274" y="730" as="sourcePoint" />
            <mxPoint x="364" y="730" as="targetPoint" />
          </mxGeometry>
        </mxCell>
        <mxCell id="h_TPtG5sdtzdA33OqhRF-24" value="" style="endArrow=classic;startArrow=classic;html=1;rounded=0;entryX=1;entryY=0.5;entryDx=0;entryDy=0;exitX=0;exitY=0.5;exitDx=0;exitDy=0;exitPerimeter=0;strokeWidth=0.5;edgeStyle=orthogonalEdgeStyle;" parent="1" source="h_TPtG5sdtzdA33OqhRF-18" target="h_TPtG5sdtzdA33OqhRF-12" edge="1">
          <mxGeometry width="50" height="50" relative="1" as="geometry">
            <mxPoint x="224" y="660" as="sourcePoint" />
            <mxPoint x="314" y="660" as="targetPoint" />
          </mxGeometry>
        </mxCell>
        <mxCell id="h_TPtG5sdtzdA33OqhRF-25" value="&lt;font style=&quot;font-size: 10px;&quot;&gt;Player&lt;/font&gt;" style="strokeWidth=1;html=1;shape=mxgraph.flowchart.database;whiteSpace=wrap;" parent="1" vertex="1">
          <mxGeometry x="394" y="880" width="60" height="60" as="geometry" />
        </mxCell>
        <mxCell id="h_TPtG5sdtzdA33OqhRF-26" value="" style="endArrow=classic;startArrow=classic;html=1;rounded=0;strokeWidth=0.5;edgeStyle=orthogonalEdgeStyle;entryX=0.5;entryY=0;entryDx=0;entryDy=0;" parent="1" target="h_TPtG5sdtzdA33OqhRF-9" edge="1">
          <mxGeometry width="50" height="50" relative="1" as="geometry">
            <mxPoint x="374" y="830" as="sourcePoint" />
            <mxPoint x="634" y="840" as="targetPoint" />
            <Array as="points">
              <mxPoint x="374" y="830" />
              <mxPoint x="414" y="830" />
              <mxPoint x="414" y="850" />
              <mxPoint x="534" y="850" />
            </Array>
          </mxGeometry>
        </mxCell>
        <mxCell id="h_TPtG5sdtzdA33OqhRF-27" value="" style="endArrow=classic;startArrow=classic;html=1;rounded=0;strokeWidth=0.5;edgeStyle=orthogonalEdgeStyle;exitX=0.5;exitY=1;exitDx=0;exitDy=0;" parent="1" source="h_TPtG5sdtzdA33OqhRF-15" target="h_TPtG5sdtzdA33OqhRF-25" edge="1">
          <mxGeometry width="50" height="50" relative="1" as="geometry">
            <mxPoint x="384" y="830" as="sourcePoint" />
            <mxPoint x="544" y="900" as="targetPoint" />
            <Array as="points">
              <mxPoint x="334" y="860" />
              <mxPoint x="364" y="860" />
              <mxPoint x="364" y="910" />
            </Array>
          </mxGeometry>
        </mxCell>
        <mxCell id="h_TPtG5sdtzdA33OqhRF-28" value="" style="endArrow=classic;startArrow=classic;html=1;rounded=0;entryX=0;entryY=0.5;entryDx=0;entryDy=0;exitX=1;exitY=0.5;exitDx=0;exitDy=0;strokeWidth=0.5;edgeStyle=orthogonalEdgeStyle;" parent="1" source="h_TPtG5sdtzdA33OqhRF-14" target="h_TPtG5sdtzdA33OqhRF-10" edge="1">
          <mxGeometry width="50" height="50" relative="1" as="geometry">
            <mxPoint x="184" y="760" as="sourcePoint" />
            <mxPoint x="314" y="729.66" as="targetPoint" />
            <Array as="points">
              <mxPoint x="424" y="640" />
              <mxPoint x="424" y="640" />
            </Array>
          </mxGeometry>
        </mxCell>
        <mxCell id="h_TPtG5sdtzdA33OqhRF-29" value="" style="endArrow=classic;startArrow=classic;html=1;rounded=0;exitX=1;exitY=0.75;exitDx=0;exitDy=0;strokeWidth=0.5;edgeStyle=orthogonalEdgeStyle;" parent="1" source="h_TPtG5sdtzdA33OqhRF-10" edge="1">
          <mxGeometry width="50" height="50" relative="1" as="geometry">
            <mxPoint x="194" y="770" as="sourcePoint" />
            <mxPoint x="614" y="780" as="targetPoint" />
            <Array as="points">
              <mxPoint x="574" y="650" />
              <mxPoint x="574" y="780" />
            </Array>
          </mxGeometry>
        </mxCell>
        <mxCell id="h_TPtG5sdtzdA33OqhRF-30" value="" style="endArrow=classic;startArrow=classic;html=1;rounded=0;exitX=1;exitY=0.25;exitDx=0;exitDy=0;strokeWidth=0.5;edgeStyle=orthogonalEdgeStyle;entryX=0;entryY=0.5;entryDx=0;entryDy=0;entryPerimeter=0;" parent="1" source="h_TPtG5sdtzdA33OqhRF-10" target="h_TPtG5sdtzdA33OqhRF-19" edge="1">
          <mxGeometry width="50" height="50" relative="1" as="geometry">
            <mxPoint x="544" y="660" as="sourcePoint" />
            <mxPoint x="604" y="640" as="targetPoint" />
            <Array as="points">
              <mxPoint x="584" y="630" />
              <mxPoint x="584" y="640" />
            </Array>
          </mxGeometry>
        </mxCell>
        <mxCell id="h_TPtG5sdtzdA33OqhRF-31" value="" style="endArrow=classic;startArrow=classic;html=1;rounded=0;entryX=1;entryY=0.5;entryDx=0;entryDy=0;exitX=0;exitY=0.75;exitDx=0;exitDy=0;strokeWidth=0.5;edgeStyle=orthogonalEdgeStyle;" parent="1" source="h_TPtG5sdtzdA33OqhRF-8" edge="1">
          <mxGeometry width="50" height="50" relative="1" as="geometry">
            <mxPoint x="604" y="799.76" as="sourcePoint" />
            <mxPoint x="544" y="799.76" as="targetPoint" />
          </mxGeometry>
        </mxCell>
        <mxCell id="h_TPtG5sdtzdA33OqhRF-32" value="" style="endArrow=classic;startArrow=classic;html=1;rounded=0;strokeWidth=0.5;edgeStyle=orthogonalEdgeStyle;" parent="1" edge="1">
          <mxGeometry width="50" height="50" relative="1" as="geometry">
            <mxPoint x="494" y="620" as="sourcePoint" />
            <mxPoint x="294" y="810" as="targetPoint" />
            <Array as="points">
              <mxPoint x="494" y="600" />
              <mxPoint x="164" y="600" />
              <mxPoint x="164" y="810" />
            </Array>
          </mxGeometry>
        </mxCell>
        <mxCell id="h_TPtG5sdtzdA33OqhRF-33" value="" style="endArrow=classic;startArrow=classic;html=1;rounded=0;entryX=0;entryY=0.5;entryDx=0;entryDy=0;exitX=1;exitY=0.25;exitDx=0;exitDy=0;strokeWidth=0.5;edgeStyle=orthogonalEdgeStyle;" parent="1" source="h_TPtG5sdtzdA33OqhRF-13" target="h_TPtG5sdtzdA33OqhRF-11" edge="1">
          <mxGeometry width="50" height="50" relative="1" as="geometry">
            <mxPoint x="184" y="760" as="sourcePoint" />
            <mxPoint x="314" y="729.66" as="targetPoint" />
            <Array as="points">
              <mxPoint x="444" y="760" />
              <mxPoint x="444" y="800" />
            </Array>
          </mxGeometry>
        </mxCell>
        <mxCell id="h_TPtG5sdtzdA33OqhRF-34" value="" style="endArrow=classic;startArrow=classic;html=1;rounded=0;entryX=0.5;entryY=0;entryDx=0;entryDy=0;exitX=0;exitY=0.5;exitDx=0;exitDy=0;exitPerimeter=0;strokeWidth=0.5;edgeStyle=orthogonalEdgeStyle;" parent="1" target="h_TPtG5sdtzdA33OqhRF-12" edge="1">
          <mxGeometry width="50" height="50" relative="1" as="geometry">
            <mxPoint x="294" y="830" as="sourcePoint" />
            <mxPoint x="234" y="830" as="targetPoint" />
          </mxGeometry>
        </mxCell>
        <mxCell id="h_TPtG5sdtzdA33OqhRF-35" value="" style="endArrow=classic;startArrow=classic;html=1;rounded=0;entryX=1;entryY=0.5;entryDx=0;entryDy=0;strokeWidth=0.5;edgeStyle=orthogonalEdgeStyle;exitX=0.5;exitY=0;exitDx=0;exitDy=0;" parent="1" source="h_TPtG5sdtzdA33OqhRF-15" edge="1">
          <mxGeometry width="50" height="50" relative="1" as="geometry">
            <mxPoint x="334" y="790" as="sourcePoint" />
            <mxPoint x="278" y="780" as="targetPoint" />
            <Array as="points">
              <mxPoint x="334" y="780" />
            </Array>
          </mxGeometry>
        </mxCell>
        <mxCell id="h_TPtG5sdtzdA33OqhRF-36" value="" style="endArrow=classic;startArrow=classic;html=1;rounded=0;strokeWidth=0.5;edgeStyle=orthogonalEdgeStyle;entryX=0.43;entryY=1.004;entryDx=0;entryDy=0;entryPerimeter=0;" parent="1" target="h_TPtG5sdtzdA33OqhRF-14" edge="1">
          <mxGeometry width="50" height="50" relative="1" as="geometry">
            <mxPoint x="214" y="750" as="sourcePoint" />
            <mxPoint x="414" y="670" as="targetPoint" />
            <Array as="points">
              <mxPoint x="214" y="700" />
              <mxPoint x="314" y="700" />
              <mxPoint x="314" y="680" />
              <mxPoint x="358" y="680" />
              <mxPoint x="358" y="660" />
            </Array>
          </mxGeometry>
        </mxCell>
      </root>
    </mxGraphModel>
  </diagram>
</mxfile>
